<?xml version="1.0" encoding="UTF-8"?>
<svg version="1.1" xmlns="http://www.w3.org/2000/svg" width="400" height="400">
<path d="M0 0 C0.66072888 -0.00495952 1.32145777 -0.00991903 2.00220874 -0.01502883 C4.23200146 -0.02805566 6.46120227 -0.01957833 8.69101048 -0.01129913 C10.29942536 -0.01618471 11.90783673 -0.02237295 13.51624209 -0.02975702 C17.94840774 -0.04622209 22.38039628 -0.04382534 26.8125819 -0.03838205 C31.58772385 -0.03571992 36.36281771 -0.05022822 41.13794041 -0.06247711 C50.49756888 -0.08356773 59.85713546 -0.0880699 69.21678489 -0.08628923 C76.82156944 -0.08498346 84.42633462 -0.08877624 92.03111553 -0.09621429 C94.21864098 -0.09831341 96.40616643 -0.10041101 98.59369189 -0.10250711 C99.68235926 -0.10355064 100.77102664 -0.10459417 101.89268393 -0.10566932 C122.49842147 -0.12458623 143.10412343 -0.123517 163.70986605 -0.11669999 C182.57635309 -0.11112304 201.44270439 -0.13195391 220.30915969 -0.16506046 C239.6641381 -0.19876165 259.01905142 -0.21397028 278.37405974 -0.20934343 C289.24729694 -0.20709518 300.12040867 -0.21239386 310.99362087 -0.23723602 C320.24981201 -0.25820304 329.50580889 -0.26188699 338.76200788 -0.24293643 C343.48760121 -0.23375022 348.21283189 -0.23272331 352.93839741 -0.25329208 C357.26068753 -0.27189801 361.58231538 -0.26761651 365.90457947 -0.24474627 C367.47184624 -0.24053406 369.03916278 -0.24484777 370.60637712 -0.25834221 C372.73061849 -0.27539353 374.85251862 -0.2618987 376.97666931 -0.24050903 C378.15825164 -0.24078142 379.33983397 -0.2410538 380.55722183 -0.24133444 C383.55125523 0.38311005 383.55125523 0.38311005 385.91594797 2.75213385 C389.32468981 8.23631343 388.71114468 14.61241878 388.71922398 20.87529755 C388.72255238 21.78006836 388.72588078 22.68483917 388.72931004 23.61702728 C388.73435642 25.52488957 388.73671907 27.43276062 388.73655796 29.34062958 C388.73874284 32.24165809 388.75691854 35.14230502 388.7758646 38.0432663 C388.77879942 39.90394209 388.78078362 41.76461968 388.78172398 43.62529755 C388.78890949 44.48388367 388.79609501 45.34246979 388.80349827 46.22707367 C388.78175655 52.0281619 388.69591275 58.49248469 385.11375523 63.32061005 C381.61308026 65.70106902 378.28876604 65.51015311 374.19900799 65.51453781 C373.54870894 65.51659045 372.8984099 65.51864308 372.22840482 65.52075791 C370.03425519 65.52644348 367.84016803 65.52496876 365.64601231 65.52355194 C364.06306253 65.52613468 362.4801134 65.52914758 360.89716518 65.53255534 C356.53538869 65.5406392 352.17362864 65.54241568 347.81184554 65.54315281 C343.11236773 65.54500093 338.4128985 65.55254699 333.71342564 65.55928802 C323.43260488 65.57288116 313.15178801 65.57889744 302.87095976 65.58329868 C296.45511416 65.58605914 290.03927007 65.59029611 283.62342548 65.59480286 C265.86954245 65.60699623 248.11566062 65.61729578 230.36177349 65.62067795 C228.65672417 65.6210073 228.65672417 65.6210073 226.91722941 65.6213433 C225.77777098 65.62156158 224.63831254 65.62177986 223.46432507 65.62200475 C221.1552484 65.62244822 218.84617174 65.62289478 216.53709507 65.62334442 C215.39170705 65.62356585 214.24631904 65.62378728 213.0662223 65.62401542 C194.49790875 65.62796525 175.9296344 65.6454246 157.36133601 65.66870394 C138.31033626 65.69239627 119.2593562 65.70487881 100.20834148 65.70604587 C89.50668731 65.70696376 78.80508423 65.71274487 68.1034441 65.73086548 C58.99261817 65.74623781 49.88185912 65.75140389 40.77102269 65.74312738 C36.12032007 65.73921083 31.46975223 65.74019928 26.81906605 65.75418472 C22.56410588 65.76686348 18.30938263 65.76577952 14.05442308 65.75359401 C12.51270901 65.75162652 10.97097849 65.75476364 9.42928757 65.76343837 C7.33762997 65.77446528 5.24681821 65.76709037 3.15518475 65.75504684 C1.41072069 65.75594248 1.41072069 65.75594248 -0.36898506 65.7568562 C-3.83147672 65.33666337 -5.67623021 64.46884137 -8.44874477 62.38311005 C-12.17219742 56.79793108 -11.60832934 50.39014455 -11.61671352 43.89092255 C-11.62004192 42.98615173 -11.62337032 42.08138092 -11.62679958 41.14919281 C-11.63184597 39.24133052 -11.63420862 37.33345947 -11.63404751 35.42559052 C-11.63623238 32.524562 -11.65440809 29.62391508 -11.67335415 26.7229538 C-11.67628897 24.862278 -11.67827317 23.00160042 -11.67921352 21.14092255 C-11.68639904 20.28233643 -11.69358456 19.42375031 -11.70098782 18.53914642 C-11.67956484 12.82310385 -11.63647633 6.56048716 -8.27847284 1.68345213 C-5.54315865 -0.26046742 -3.33136248 0.00443047 0 0 Z " fill="#5659F8" transform="translate(11.448744773864746,167.61688995361328)"/>
<path d="M0 0 C1.13586886 -0.00829899 2.27173772 -0.01659798 3.44202685 -0.02514845 C5.32982297 -0.02357218 5.32982297 -0.02357218 7.25575638 -0.02196407 C8.59789517 -0.02784421 9.94003043 -0.03458238 11.282161 -0.04210895 C14.98298242 -0.06023576 18.68373264 -0.06570916 22.38459301 -0.06909573 C26.37110133 -0.07484088 30.35756355 -0.09196525 34.34404373 -0.10744381 C43.97771809 -0.14224017 53.6113888 -0.15778776 63.2451123 -0.17156711 C67.77903061 -0.17852329 72.31294434 -0.18768114 76.84685898 -0.1966753 C91.91395118 -0.22588406 106.98103888 -0.25067752 122.04815674 -0.26129913 C123.49544922 -0.26233517 123.49544922 -0.26233517 124.97197993 -0.26339215 C126.42278606 -0.26443017 126.42278606 -0.26443017 127.90290141 -0.26548916 C129.86290662 -0.26690117 131.82291183 -0.26832198 133.78291702 -0.26975155 C134.75515257 -0.27045672 135.72738812 -0.27116189 136.72908536 -0.27188843 C152.48394327 -0.28413965 168.23856059 -0.326934 183.99331865 -0.38269175 C200.15937534 -0.4394417 216.32531035 -0.46994717 232.49146771 -0.47431129 C241.57188214 -0.47739599 250.65196245 -0.49194509 259.73228073 -0.53559208 C267.46456046 -0.5726541 275.19641567 -0.58589578 282.92877147 -0.56788719 C286.87507467 -0.55942081 290.82051062 -0.56233965 294.76670074 -0.59570599 C298.37946185 -0.62598305 301.99071165 -0.62396596 305.60347977 -0.59621798 C307.52965172 -0.58980884 309.45584292 -0.61792121 311.38180232 -0.64724451 C319.58991196 -0.53861406 319.58991196 -0.53861406 322.76413774 1.80460465 C324.29494289 3.55686299 325.51221138 5.25782768 326.6794014 7.26564884 C327.16521683 7.98414005 327.65103226 8.70263126 328.15156937 9.44289494 C328.65647903 10.35675968 328.65647903 10.35675968 329.1715889 11.28908634 C329.56265823 11.99154484 329.95372757 12.69400333 330.35664749 13.41774845 C330.94953568 14.51808414 330.94953568 14.51808414 331.5544014 15.64064884 C331.97930862 16.41867863 332.40421585 17.19670841 332.84199905 17.99831486 C350.29997655 50.33962606 350.29997655 50.33962606 348.6794014 60.26564884 C346.4607711 63.17281957 345.15995211 64.10546527 341.6794014 65.26564884 C339.64703286 65.36080227 337.61162563 65.39480012 335.57703209 65.39707661 C333.64986325 65.40283832 333.64986325 65.40283832 331.68376172 65.40871644 C330.24970121 65.40793615 328.81564075 65.40705735 327.38158035 65.40609074 C325.86462735 65.40867357 324.34767502 65.41168649 322.83072364 65.41509414 C318.65137219 65.42317691 314.47203789 65.42495442 310.29267955 65.4256916 C305.78952239 65.42753991 301.28637419 65.43508607 296.7832222 65.44182682 C286.93213985 65.45541919 277.08106157 65.46143612 267.22997141 65.46583748 C261.08214131 65.46859807 254.93431279 65.47283506 248.78648376 65.47734165 C231.77377102 65.48953492 214.76105954 65.4998345 197.74834251 65.50321674 C196.11451586 65.50354609 196.11451586 65.50354609 194.44768261 65.5038821 C193.35582335 65.50410037 192.26396409 65.50431865 191.13901818 65.50454354 C188.92640503 65.50498701 186.71379189 65.50543358 184.50117874 65.50588322 C183.40364056 65.50610465 182.30610238 65.50632608 181.17530547 65.50655422 C163.38297431 65.51050399 145.59068406 65.52796321 127.79836871 65.55124274 C109.54289762 65.57493604 91.28744708 65.58741765 73.03196037 65.58858466 C62.77743609 65.5895025 52.52296513 65.59528223 42.26845551 65.61340427 C33.5382459 65.62877792 24.80810609 65.6339419 16.07788552 65.62566617 C11.62160628 65.62175009 7.16546771 65.6227358 2.70920563 65.63672352 C-1.36811737 65.64940507 -5.44519317 65.64831586 -9.52251555 65.63613281 C-10.99962719 65.6341658 -12.476756 65.63730024 -13.95384346 65.64597717 C-15.95804958 65.65700768 -17.96233669 65.647824 -19.96654701 65.63758564 C-21.08091884 65.63818273 -22.19529068 65.63877982 -23.34343135 65.639395 C-27.68007333 65.09498377 -30.27270344 63.313544 -33.3205986 60.26564884 C-33.9822605 54.17835942 -32.30136775 49.6429685 -30.0080986 44.14064884 C-29.65562057 43.27971622 -29.30314255 42.41878361 -28.93998337 41.53176212 C-11.51932542 0.03544761 -11.51932542 0.03544761 0 0 Z " fill="#7337F7" transform="translate(42.32059860229492,83.73435115814209)"/>
<path d="M0 0 C1.30828734 -0.01043099 2.61657469 -0.02086198 3.9645071 -0.03160906 C5.41989802 -0.02296046 6.87528673 -0.01393382 8.33067322 -0.00457001 C9.873956 -0.00917718 11.4172344 -0.01552886 12.96050358 -0.02347898 C17.2080512 -0.04022087 21.45524065 -0.03190404 25.70278978 -0.01953411 C30.28091424 -0.01050573 34.85897592 -0.02444232 39.43708801 -0.0354538 C48.40825091 -0.05326732 57.37928017 -0.04938645 66.35044837 -0.03780323 C73.63961369 -0.02878031 80.92874147 -0.02753996 88.21791077 -0.0318985 C89.25419902 -0.03251143 90.29048727 -0.03312436 91.3581782 -0.03375587 C93.46318715 -0.03503473 95.56819609 -0.03633158 97.67320502 -0.03764623 C117.42532712 -0.04906033 137.17737503 -0.03592532 156.92948496 -0.01444477 C173.88836548 0.00342696 190.84713648 0.00032308 207.80601501 -0.01811981 C227.48605752 -0.03951188 247.16603495 -0.04796162 266.84608746 -0.03567076 C268.94347826 -0.03439652 271.04086907 -0.03313904 273.13825989 -0.0318985 C274.68631155 -0.03097285 274.68631155 -0.03097285 276.26563698 -0.03002849 C283.54849084 -0.0265706 290.83130352 -0.03241339 298.114151 -0.04181671 C306.98603147 -0.05301961 315.85777034 -0.05003273 324.72963452 -0.02869374 C329.25873311 -0.01816023 333.78759536 -0.01410047 338.31669235 -0.02729034 C342.45938813 -0.03917271 346.60162753 -0.03272095 350.74428165 -0.01138014 C352.24623756 -0.00689634 353.74823169 -0.00922001 355.2501632 -0.01888329 C357.28547281 -0.03097802 359.32088979 -0.01622732 361.35617065 0 C363.05482474 0.00097411 363.05482474 0.00097411 364.78779507 0.00196791 C368.34257335 0.61863744 369.52709014 1.65228942 371.67808533 4.50336456 C372.58438628 10.61334346 370.50318838 15.41894512 368.17808533 20.94086456 C367.81642273 21.8175882 367.45476013 22.69431183 367.08213806 23.59760284 C353.26475509 56.59764511 353.26475509 56.59764511 343.67808533 64.50336456 C340.61248872 65.5252301 338.53554198 65.63065955 335.32534981 65.63479233 C334.20777357 65.63863347 333.09019734 65.64247462 331.93875515 65.64643216 C330.70580082 65.64556568 329.47284649 65.6446992 328.20252991 65.64380646 C326.24387161 65.64826314 326.24387161 65.64826314 324.24564445 65.65280986 C320.61356802 65.66088874 316.98151134 65.66266992 313.34942698 65.66340733 C309.43523168 65.66525631 305.52104667 65.67280281 301.6068573 65.67954254 C293.04499023 65.69313215 284.48312784 65.69915141 275.92125177 65.7035532 C270.57746818 65.70631426 265.23368639 65.71055133 259.88990402 65.71505737 C245.10070217 65.72725029 230.31150177 65.73754993 215.522295 65.74093246 C214.10213636 65.74126181 214.10213636 65.74126181 212.65328764 65.74159782 C211.70422588 65.74181609 210.75516412 65.74203437 209.77734292 65.74225926 C207.85412033 65.74270273 205.93089775 65.7431493 204.00767517 65.74359894 C202.57669217 65.74393108 202.57669217 65.74393108 201.11680041 65.74426994 C185.65241593 65.7482195 170.18807852 65.76567826 154.72371222 65.78895846 C138.85482708 65.81265527 122.98596558 65.82513353 107.11706245 65.82630038 C98.20392727 65.82721802 89.29085345 65.8329928 80.37773514 65.85112 C72.789374 65.86649838 65.20109318 65.87165482 57.61271943 65.86338189 C53.73970901 65.85946748 49.86686043 65.86044334 45.99386978 65.87443924 C41.79833147 65.88946239 37.60316 65.88133525 33.40760803 65.87085724 C32.17911514 65.87891364 30.95062226 65.88697005 29.68490231 65.89527059 C28.56211058 65.88868074 27.43931885 65.8820909 26.28250313 65.87530136 C25.3139439 65.87589845 24.34538468 65.87649554 23.34747517 65.87711072 C19.21623501 65.29868823 16.56887846 63.53460672 13.86949158 60.40961456 C9.73188033 54.29745982 6.05922851 48.06372466 2.67808533 41.50336456 C2.16407166 40.50949738 1.65005798 39.51563019 1.12046814 38.49164581 C-2.04590632 32.26650182 -4.99101053 25.99406391 -7.57191467 19.50336456 C-7.85937561 18.79309113 -8.14683655 18.08281769 -8.44300842 17.35102081 C-10.11131423 12.93890241 -10.93188144 9.2023678 -10.32191467 4.50336456 C-7.25405078 0.41914578 -4.99327091 0.00286345 0 0 Z " fill="#4993F8" transform="translate(19.321914672851563,251.49663543701172)"/>
<path d="M0 0 C0.87629059 0.00054382 1.75258118 0.00108765 2.65542603 0.00164795 C17.27954676 0.04322257 31.34251637 1.01850061 45.625 4.375 C46.97682373 4.68848389 46.97682373 4.68848389 48.35595703 5.00830078 C79.77808512 12.56523485 114.58070954 29.05691035 136.625 53.375 C137.1875 56.9375 137.1875 56.9375 136.625 60.375 C134.40636971 63.28217073 133.10555071 64.21481643 129.625 65.375 C128.16576481 65.46716164 126.70268223 65.50409084 125.24054146 65.50642776 C124.33893575 65.51026891 123.43733004 65.51411005 122.50840294 65.5180676 C121.51668741 65.51720112 120.52497187 65.51633463 119.50320435 65.51544189 C117.92431641 65.51989858 117.92431641 65.51989858 116.31353176 65.5244453 C112.76907182 65.5331511 109.22464558 65.53464213 105.68017578 65.53613281 C103.14600553 65.5407596 100.61183597 65.54578407 98.07766724 65.55117798 C91.18103463 65.56431617 84.28441317 65.57078605 77.38777018 65.57518864 C73.08254657 65.57795056 68.77732521 65.58218779 64.47210312 65.58669281 C52.55493625 65.59888506 40.63777119 65.60918483 28.72059822 65.6125679 C27.95781769 65.61278747 27.19503716 65.61300703 26.40914207 65.61323325 C25.64452709 65.61345153 24.8799121 65.61366981 24.09212697 65.6138947 C22.54270053 65.61433817 20.99327409 65.61478473 19.44384766 65.61523438 C18.6752771 65.6154558 17.90670655 65.61567723 17.11484598 65.61590537 C4.65739103 65.61985457 -7.80000545 65.63731246 -20.25743781 65.6605939 C-33.04364958 65.68429718 -45.829832 65.69676927 -58.6160661 65.69793582 C-65.79657558 65.6988531 -72.97700888 65.70461871 -80.15749741 65.72275543 C-86.90930332 65.73974919 -93.66093978 65.74141674 -100.41276932 65.73261642 C-102.89401384 65.73184332 -105.37526599 65.73622455 -107.85649109 65.74607468 C-111.23758099 65.75871244 -114.61815138 65.75296166 -117.99923706 65.74249268 C-118.98649115 65.75054908 -119.97374525 65.75860548 -120.99091613 65.76690602 C-127.24924336 65.72142693 -130.82537771 64.92462229 -135.375 60.375 C-136 57.25 -136 57.25 -135.375 53.375 C-130.71116498 47.50494836 -124.51970855 42.89344174 -118.5 38.5 C-117.67773926 37.89849121 -116.85547852 37.29698242 -116.00830078 36.67724609 C-107.84661017 30.82073009 -99.32584699 25.91238782 -90.375 21.375 C-89.66633789 21.01180664 -88.95767578 20.64861328 -88.22753906 20.27441406 C-74.26253243 13.18606664 -59.8840523 8.33832876 -44.6875 4.625 C-43.47852051 4.32686401 -43.47852051 4.32686401 -42.24511719 4.02270508 C-28.20204206 0.75038244 -14.3513086 -0.0336562 0 0 Z " fill="#C04AF8" transform="translate(199.375,-0.375)"/>
<path d="M0 0 C1.07865326 -0.00709439 2.15730652 -0.01418877 3.26864624 -0.02149814 C6.89560203 -0.03914897 10.52149624 -0.0209361 14.1484375 -0.00291443 C16.74349457 -0.0080505 19.33854815 -0.0153294 21.93359375 -0.02459717 C28.25783846 -0.04299105 34.58177453 -0.03445003 40.90600967 -0.01650894 C46.04510937 -0.00249192 51.1841252 0.00141181 56.32324219 -0.00195122 C57.0542407 -0.00242866 57.78523922 -0.0029061 58.53838921 -0.00339801 C60.02332817 -0.00442433 61.50826711 -0.00547968 62.99320602 -0.00656378 C76.128345 -0.01513437 89.26333482 0.00155572 102.3984375 0.03126526 C115.14850124 0.06010358 127.89835009 0.06718671 140.6484375 0.05177307 C154.52734637 0.03501781 168.40615318 0.03096977 182.2850647 0.04848343 C183.76458739 0.05032785 185.2441101 0.05216258 186.72363281 0.0539875 C187.45161512 0.05489959 188.17959743 0.05581168 188.92963982 0.05675141 C194.06346226 0.06236103 199.19723494 0.05904568 204.33105469 0.05244255 C211.23889169 0.04391054 218.14641293 0.05684655 225.05419922 0.08429146 C227.59390338 0.09119551 230.13363644 0.0912518 232.67333984 0.08407593 C236.13153505 0.0754287 239.58876111 0.09125834 243.046875 0.11352539 C244.05970551 0.10528462 245.07253601 0.09704386 246.11605835 0.08855337 C252.86168482 0.16910949 252.86168482 0.16910949 256.14306641 2.44551182 C258.21373768 5.71970898 258.12186119 7.83817236 257.5234375 11.62818909 C255.5859375 14.06568909 255.5859375 14.06568909 252.5234375 16.62818909 C251.96140625 17.17732971 251.399375 17.72647034 250.8203125 18.29225159 C243.24703723 25.53755037 234.35418499 31.05957444 225.5234375 36.62818909 C224.86988281 37.04246155 224.21632813 37.45673401 223.54296875 37.88356018 C208.06926602 47.53840457 190.67183551 54.18861154 173.1484375 59.06568909 C172.35550293 59.28829407 171.56256836 59.51089905 170.74560547 59.74024963 C154.54943503 63.96074478 138.45247474 65.17774138 121.7734375 65.06568909 C120.80920868 65.06264771 119.84497986 65.05960632 118.85153198 65.05647278 C104.39461313 64.98911503 90.57518094 64.27623786 76.5234375 60.62818909 C75.67523438 60.42451721 74.82703125 60.22084534 73.953125 60.01100159 C41.4654103 52.15576311 11.24215223 36.13910267 -13.4765625 13.62818909 C-14.90318469 10.77494471 -14.78690118 8.7936436 -14.4765625 5.62818909 C-11.17304588 -0.8105265 -6.46702892 -0.07557237 0 0 Z " fill="#57D5FC" transform="translate(78.4765625,335.37181091308594)"/>
<path d="M0 0 C49.61557719 -0.114361 99.23114111 -0.20250595 148.84682409 -0.25532665 C154.69996628 -0.26158043 160.5531082 -0.26805202 166.40625 -0.2746582 C168.15418578 -0.27662553 168.15418578 -0.27662553 169.93743339 -0.2786326 C188.8234952 -0.30040897 207.70948117 -0.33984276 226.59549794 -0.38576398 C245.96392506 -0.43246657 265.33231238 -0.46028226 284.7007935 -0.47044247 C296.65914112 -0.4773145 308.61727441 -0.49904492 320.57555607 -0.53958233 C328.76779906 -0.56594422 336.95993071 -0.5740159 345.15221307 -0.56750689 C349.88387838 -0.56429376 354.6151683 -0.56933385 359.34676743 -0.59602737 C363.67469953 -0.62026621 368.00200199 -0.62164912 372.3299624 -0.60449447 C373.8993494 -0.60237271 375.46877486 -0.60879488 377.03808555 -0.62441591 C379.16518085 -0.64436568 381.28997724 -0.63374587 383.41703415 -0.61523914 C384.6002427 -0.61713775 385.78345125 -0.61903635 387.0025146 -0.62099248 C390 0 390 0 392.41143537 2.35095245 C394 5 394 5 394 8 C393.34 8 392.68 8 392 8 C391.67 6.68 391.34 5.36 391 4 C388.27119539 3.80444068 385.54228931 3.61829553 382.8125 3.4375 C382.04357422 3.38142578 381.27464844 3.32535156 380.48242188 3.26757812 C376.42643002 3.00646277 372.98569002 3.04996588 369 4 C367.328451 3.69208308 365.66194453 3.35613097 364 3 C360.42921288 2.8701532 357.21276501 2.96387009 353.6875 3.5625 C351 4 351 4 349 3 C345.75579264 2.87757708 342.79458751 2.81180822 339.625 3.5625 C337.04693646 3.99217726 335.31479748 3.8505519 332.75 3.5 C328.64564008 2.95092175 325.02443735 3.20044716 320.9453125 3.84375 C319 4 319 4 316 3 C312.43860927 2.8656079 309.20440461 2.96528978 305.6875 3.5625 C303 4 303 4 301 3 C297.75579264 2.87757708 294.79458751 2.81180822 291.625 3.5625 C289.04693646 3.99217726 287.31479748 3.8505519 284.75 3.5 C280.64564008 2.95092175 277.02443735 3.20044716 272.9453125 3.84375 C271 4 271 4 268 3 C264.43860927 2.8656079 261.20440461 2.96528978 257.6875 3.5625 C255 4 255 4 253 3 C249.75579264 2.87757708 246.79458751 2.81180822 243.625 3.5625 C241.04693646 3.99217726 239.31479748 3.8505519 236.75 3.5 C232.64564008 2.95092175 229.02443735 3.20044716 224.9453125 3.84375 C223 4 223 4 220 3 C216.43860927 2.8656079 213.20440461 2.96528978 209.6875 3.5625 C207 4 207 4 205 3 C201.75579264 2.87757708 198.79458751 2.81180822 195.625 3.5625 C193.04693646 3.99217726 191.31479748 3.8505519 188.75 3.5 C184.64564008 2.95092175 181.02443735 3.20044716 176.9453125 3.84375 C175 4 175 4 172 3 C168.43860927 2.8656079 165.20440461 2.96528978 161.6875 3.5625 C159 4 159 4 157 3 C153.75579264 2.87757708 150.79458751 2.81180822 147.625 3.5625 C145.04693646 3.99217726 143.31479748 3.8505519 140.75 3.5 C136.64564008 2.95092175 133.02443735 3.20044716 128.9453125 3.84375 C127 4 127 4 124 3 C120.43860927 2.8656079 117.20440461 2.96528978 113.6875 3.5625 C111 4 111 4 109 3 C105.668913 2.8742986 102.64127265 2.86258443 99.375 3.5625 C96.59434055 4.07472674 94.75372573 3.59008408 92 3 C88.44979305 2.87090157 85.25300049 2.95621145 81.75 3.5625 C79 4 79 4 76 3 C73.32739699 2.75839192 70.67843272 2.57293417 68 2.4375 C67.16895752 2.39431641 66.33791504 2.35113281 65.48168945 2.30664062 C57.2552217 1.92906666 49.04041262 1.97230913 40.80737305 2.01928711 C27.1932262 2.06620273 13.60153918 1.53692165 0 1 C0 0.67 0 0.34 0 0 Z " fill="#513FD1" transform="translate(5,168)"/>
<path d="M0 0 C6.33790761 0.0023058 12.67581253 0.00255971 19.01372044 0.00148369 C19.92644482 0.00133045 20.8391692 0.00117722 21.77955189 0.00101934 C23.63507528 0.00069954 25.49059866 0.00037533 27.34612204 0.00004675 C44.57769366 -0.00277761 61.80925989 0.0004336 79.04083063 0.00584712 C93.79973326 0.01033981 108.55862805 0.00951321 123.31753056 0.00492836 C140.55658583 -0.0004246 157.79563646 -0.00253165 175.03469245 0.00054062 C176.87118729 0.00085912 178.70768214 0.00117349 180.54417698 0.00148369 C181.44732074 0.00163796 182.35046449 0.00179224 183.28097624 0.00195119 C189.62368024 0.00281214 195.96638127 0.00136314 202.30908482 -0.00099587 C210.01779936 -0.00380085 217.72650372 -0.00303966 225.4352171 0.00228488 C229.36161718 0.00490819 233.28800027 0.00594978 237.21440022 0.00263572 C240.81030963 -0.00035373 244.40618638 0.00130944 248.00209285 0.00661328 C249.91101307 0.00825081 251.81993558 0.00500436 253.72885339 0.00155605 C260.01420734 0.01585033 266.1601156 0.10684442 272.37026493 1.13529945 C272.70026493 1.79529945 273.03026493 2.45529945 273.37026493 3.13529945 C224.50200467 3.18103874 175.63374657 3.21629924 126.76546913 3.23743011 C121.001166 3.23993164 115.23686292 3.24252027 109.47255985 3.24516273 C108.32495071 3.24568735 107.17734157 3.24621197 105.9949564 3.24675249 C87.39277994 3.25546425 68.79061579 3.27123844 50.18844665 3.28960504 C31.1126936 3.30828269 12.03694702 3.31941164 -7.0388148 3.32347644 C-18.81743669 3.32622594 -30.59602378 3.33492197 -42.37463496 3.35113239 C-50.44257079 3.36167293 -58.51048854 3.36490675 -66.57843076 3.36230221 C-71.23896456 3.36101633 -75.89943738 3.36304053 -80.55996044 3.3737104 C-84.82167394 3.38339643 -89.08328509 3.38396484 -93.34500317 3.37709724 C-94.89148174 3.37624764 -96.43796654 3.378824 -97.98443275 3.38506582 C-100.07758952 3.39302687 -102.17037095 3.38880591 -104.26352127 3.38139511 C-105.42888296 3.38215455 -106.59424466 3.38291399 -107.79492034 3.38369644 C-110.62973507 3.13529945 -110.62973507 3.13529945 -113.62973507 1.13529945 C-75.75573334 -0.03055604 -37.88733861 -0.01417424 0 0 Z " fill="#4057C1" transform="translate(118.62973506748676,229.8647005483508)"/>
<path d="M0 0 C0.33 0 0.66 0 1 0 C1.66 3.63 2.32 7.26 3 11 C50.033662 11.09151392 97.06731459 11.16201757 144.10104803 11.20426132 C149.65118711 11.20926427 155.20132602 11.21444155 160.75146484 11.21972656 C161.85641845 11.2207758 162.96137205 11.22182505 164.0998091 11.22290608 C182.00159469 11.24032118 199.90332902 11.27186496 217.80508418 11.30861118 C236.16781146 11.34598985 254.53051185 11.36822934 272.89327562 11.37635398 C284.22818502 11.38184813 295.56294951 11.39921387 306.89781432 11.43166587 C314.66583055 11.45277579 322.43377164 11.45920804 330.20181449 11.45400551 C334.68659738 11.45143824 339.17112668 11.45543103 343.65586472 11.4768219 C347.76055177 11.49625743 351.8648142 11.49728969 355.96952061 11.48359558 C357.45549417 11.48190258 358.941494 11.48700236 360.42741568 11.49953273 C362.44597689 11.51556679 364.46469885 11.50455016 366.4832859 11.49219131 C367.60497976 11.4937102 368.72667361 11.49522908 369.88235819 11.49679399 C373.76891624 10.87747375 375.95968137 9.45889681 379 7 C379.96219702 4.37233611 379.96219702 4.37233611 380 2 C380.33 2 380.66 2 381 2 C381.48915663 8.35903614 381.48915663 8.35903614 379.1875 11.375 C375.46444183 14.14070036 372.40037222 14.12638969 367.89763069 14.13142776 C365.97046186 14.13718948 365.97046186 14.13718948 364.00436032 14.1430676 C362.57029981 14.14228731 361.13623935 14.14140851 359.70217896 14.14044189 C358.18522595 14.14302472 356.66827362 14.14603765 355.15132225 14.1494453 C350.97197079 14.15752807 346.7926365 14.15930557 342.61327815 14.16004276 C338.110121 14.16189107 333.60697279 14.16943723 329.1038208 14.17617798 C319.25273846 14.18977035 309.40166017 14.19578727 299.55057001 14.20018864 C293.40273992 14.20294923 287.2549114 14.20718621 281.10708237 14.21169281 C264.09436962 14.22388608 247.08165814 14.23418566 230.06894112 14.2375679 C228.43511446 14.23789725 228.43511446 14.23789725 226.76828121 14.23823325 C225.67642195 14.23845153 224.58456269 14.23866981 223.45961678 14.2388947 C221.24700363 14.23933817 219.03439049 14.23978473 216.82177734 14.24023438 C215.72423916 14.2404558 214.62670099 14.24067723 213.49590407 14.24090537 C195.70357291 14.24485514 177.91128266 14.26231437 160.11896731 14.2855939 C141.86349622 14.30928719 123.60804569 14.32176881 105.35255897 14.32293582 C95.09803469 14.32385366 84.84356373 14.32963339 74.58905411 14.34775543 C65.8588445 14.36312908 57.12870469 14.36829306 48.39848413 14.36001733 C43.94220488 14.35610125 39.48606631 14.35708696 35.02980423 14.37107468 C30.95248123 14.38375623 26.87540543 14.38266702 22.79808305 14.37048396 C21.32097141 14.36851696 19.84384261 14.3716514 18.36675514 14.38032833 C16.36254903 14.39135883 14.35826191 14.38217516 12.35405159 14.3719368 C11.23967976 14.37253389 10.12530792 14.37313097 8.97716725 14.37374616 C4.64052527 13.82933493 2.04789516 12.04789516 -1 9 C-1.33870968 2.67741935 -1.33870968 2.67741935 0 0 Z " fill="#4926B9" transform="translate(10,135)"/>
<path d="M0 0 C0.33 0 0.66 0 1 0 C1.103125 0.94875 1.20625 1.8975 1.3125 2.875 C1.68539295 6.29107501 1.68539295 6.29107501 5 8 C7.71236028 8.20444876 7.71236028 8.20444876 10.625 8.0625 C12.41597213 8.00844179 14.20832865 7.97957378 16 8 C16.33 8.33 16.66 8.66 17 9 C20.18522972 9.11052635 23.34923892 9.15497913 26.53529358 9.15821838 C28.05565669 9.16562535 28.05565669 9.16562535 29.60673422 9.17318195 C33.03087119 9.18864012 36.4549893 9.19693996 39.87915039 9.20532227 C42.32261829 9.21489426 44.76608451 9.22490393 47.20954895 9.23532104 C52.48446667 9.25681827 57.75938167 9.27524822 63.03431892 9.29092598 C70.66107445 9.31359888 78.28780197 9.34174523 85.91453379 9.37124526 C98.28716708 9.41895289 110.6598118 9.46220844 123.0324707 9.50268555 C135.05428965 9.54202437 147.07609843 9.58344669 159.09790039 9.62768555 C159.83841257 9.63040982 160.57892475 9.63313409 161.34187669 9.63594092 C165.05665586 9.64962013 168.77143487 9.66334045 172.4862138 9.67708123 C203.32412158 9.7910958 234.16205064 9.89782028 265 10 C265 10.66 265 11.32 265 12 C232.21744592 12.06864545 199.43491045 12.12151827 166.65230091 12.15319599 C162.78325583 12.15694817 158.91421089 12.16083113 155.04516602 12.16479492 C153.88976543 12.16597532 153.88976543 12.16597532 152.71102341 12.16717956 C140.23398319 12.18023851 127.75698437 12.20389504 115.27996872 12.23145839 C102.4802967 12.259499 89.68064638 12.27617341 76.88094491 12.28226548 C68.98089845 12.28638472 61.08096903 12.29940159 53.18095859 12.3237494 C47.12631865 12.34146083 41.07177968 12.34336903 35.01711082 12.33932304 C32.53102776 12.34015031 30.04494039 12.34614319 27.55888367 12.35761642 C24.17107445 12.37248809 20.78377063 12.36897274 17.39595032 12.36076355 C15.91199964 12.37387134 15.91199964 12.37387134 14.39807016 12.38724393 C8.13225841 12.34605565 4.5551696 11.5551696 0 7 C-0.125 3.375 -0.125 3.375 0 0 Z " fill="#752EB1" transform="translate(64,53)"/>
<path d="M0 0 C1.07865326 -0.00709439 2.15730652 -0.01418877 3.26864624 -0.02149814 C6.89560203 -0.03914897 10.52149624 -0.0209361 14.1484375 -0.00291443 C16.74349457 -0.0080505 19.33854815 -0.0153294 21.93359375 -0.02459717 C28.25783846 -0.04299105 34.58177453 -0.03445003 40.90600967 -0.01650894 C46.04510937 -0.00249192 51.1841252 0.00141181 56.32324219 -0.00195122 C57.0542407 -0.00242866 57.78523922 -0.0029061 58.53838921 -0.00339801 C60.02332817 -0.00442433 61.50826711 -0.00547968 62.99320602 -0.00656378 C76.128345 -0.01513437 89.26333482 0.00155572 102.3984375 0.03126526 C115.14850124 0.06010358 127.89835009 0.06718671 140.6484375 0.05177307 C154.52734637 0.03501781 168.40615318 0.03096977 182.2850647 0.04848343 C183.76458739 0.05032785 185.2441101 0.05216258 186.72363281 0.0539875 C187.45161512 0.05489959 188.17959743 0.05581168 188.92963982 0.05675141 C194.06346226 0.06236103 199.19723494 0.05904568 204.33105469 0.05244255 C211.23889169 0.04391054 218.14641293 0.05684655 225.05419922 0.08429146 C227.59390338 0.09119551 230.13363644 0.0912518 232.67333984 0.08407593 C236.13153505 0.0754287 239.58876111 0.09125834 243.046875 0.11352539 C244.05970551 0.10528462 245.07253601 0.09704386 246.11605835 0.08855337 C252.86168482 0.16910949 252.86168482 0.16910949 256.14306641 2.44551182 C258.21373768 5.71970898 258.12186119 7.83817236 257.5234375 11.62818909 C254.89892596 14.83592542 251.9040202 17.24926052 248.5234375 19.62818909 C248.1934375 18.96818909 247.8634375 18.30818909 247.5234375 17.62818909 C248.1834375 17.62818909 248.8434375 17.62818909 249.5234375 17.62818909 C249.6265625 17.07131409 249.7296875 16.51443909 249.8359375 15.94068909 C250.5234375 13.62818909 250.5234375 13.62818909 252.1484375 11.31568909 C253.97655393 7.74255242 253.35230989 5.47114288 252.5234375 1.62818909 C251.0384375 2.12318909 251.0384375 2.12318909 249.5234375 2.62818909 C248.12049757 2.71663662 246.71370088 2.75017821 245.30797672 2.7484436 C244.44407167 2.74981795 243.58016661 2.7511923 242.69008261 2.7526083 C241.26568677 2.74721586 241.26568677 2.74721586 239.81251526 2.74171448 C238.29994759 2.74193777 238.29994759 2.74193777 236.756823 2.74216557 C233.36203099 2.74146849 229.96729242 2.73361446 226.57250977 2.72584534 C224.14509105 2.72392713 221.71767194 2.72246287 219.29025269 2.72142029 C214.05520055 2.71825386 208.82016086 2.71208901 203.58511543 2.70335388 C196.01173321 2.69080985 188.43835621 2.68472542 180.86496531 2.68042052 C168.57232625 2.67335041 156.27969376 2.66254628 143.98706055 2.6486969 C143.25112444 2.64786909 142.51518834 2.64704128 141.75695115 2.64618838 C135.78594245 2.639444 129.81493396 2.63251937 123.84392548 2.62558556 C118.62601226 2.61953358 113.40809897 2.61355302 108.19018555 2.60768127 C107.45544742 2.60685315 106.7207093 2.60602502 105.96370638 2.6051718 C93.71877963 2.5914922 81.47385277 2.58172961 69.2289204 2.57477093 C61.67342705 2.5702863 54.11795323 2.56223914 46.562469 2.54962611 C40.77569478 2.54021484 34.98892556 2.53585801 29.20214462 2.53337479 C26.82529816 2.53149759 24.44845237 2.52788641 22.0716114 2.52244186 C18.8348395 2.51525923 15.59812187 2.51418661 12.36134338 2.5146637 C10.94029363 2.50927125 10.94029363 2.50927125 9.4905358 2.50376987 C8.62402299 2.50514422 7.75751019 2.50651857 6.86473942 2.50793457 C6.11755714 2.50701278 5.37037487 2.50609098 4.60055071 2.50514126 C2.46396541 2.6317122 0.57795559 3.04287305 -1.4765625 3.62818909 C-1.4765625 2.96818909 -1.4765625 2.30818909 -1.4765625 1.62818909 C-4.34361701 2.70166764 -6.96870243 3.85883995 -9.4765625 5.62818909 C-11.01742572 9.14219576 -11.01742572 9.14219576 -11.4765625 12.62818909 C-11.8065625 13.28818909 -12.1365625 13.94818909 -12.4765625 14.62818909 C-14.81825014 11.11565763 -14.97279927 9.76349553 -14.4765625 5.62818909 C-11.16055183 -0.80696769 -6.47397317 -0.07565351 0 0 Z " fill="#5EC0F4" transform="translate(78.4765625,335.37181091308594)"/>
<path d="M0 0 C0.33 0 0.66 0 1 0 C1.103125 0.94875 1.20625 1.8975 1.3125 2.875 C1.68539295 6.29107501 1.68539295 6.29107501 5 8 C7.71236028 8.20444876 7.71236028 8.20444876 10.625 8.0625 C12.41597213 8.00844179 14.20832865 7.97957378 16 8 C16.33 8.33 16.66 8.66 17 9 C19.76856867 9.12518823 22.51341126 9.18608205 25.28344727 9.20532227 C26.15166107 9.21522186 27.01987488 9.22512146 27.91439819 9.23532104 C30.79837267 9.26703368 33.68236365 9.29173188 36.56640625 9.31640625 C38.56038351 9.33696736 40.55435632 9.3579636 42.54832458 9.37937927 C47.80740776 9.43468707 53.06653083 9.4840578 58.32568359 9.53222656 C63.68786182 9.58237818 69.04998181 9.63809726 74.41210938 9.69335938 C84.94135655 9.80104738 95.4706542 9.90246856 106 10 C106 10.33 106 10.66 106 11 C93.17857426 11.20016818 80.3570287 11.38389313 67.53506947 11.54658794 C61.58141477 11.62265007 55.62795054 11.70438939 49.67456055 11.79907227 C43.92996363 11.89022613 38.1853446 11.96650737 32.44040489 12.03244972 C30.24787713 12.06023591 28.05541069 12.09339436 25.86304665 12.13199425 C22.79385913 12.18511717 19.72500959 12.21918928 16.65551758 12.2487793 C15.74777084 12.26891586 14.84002411 12.28905243 13.9047699 12.30979919 C9.07824724 12.33445354 5.92868934 12.12784558 2 9 C0 7 0 7 -0.125 3.375 C-0.08375 2.26125 -0.0425 1.1475 0 0 Z " fill="#A149E8" transform="translate(64,53)"/>
<path d="M0 0 C1.2684375 0.495 1.2684375 0.495 2.5625 1 C7.02694881 2.29874874 10.9388293 2.41223414 15.5 1.5 C18.70995402 0.8580092 21.73605734 0.87446374 25 1 C25.33 1.33 25.66 1.66 26 2 C28.5 2.16666667 28.5 2.16666667 31 2 C31.33 1.67 31.66 1.34 32 1 C37.152416 0.67558862 41.95094544 0.99018909 47 2 C47.845625 1.814375 48.69125 1.62875 49.5625 1.4375 C52.45862317 0.91768302 53.55699399 1.46181103 56 3 C49.67771145 3.93988755 43.54226642 4.13181516 37.15625 4.09765625 C36.14655151 4.0962413 35.13685303 4.09482635 34.09655762 4.09336853 C30.89767389 4.08780781 27.69886228 4.0752627 24.5 4.0625 C22.32031352 4.05747992 20.14062593 4.0529179 17.9609375 4.04882812 C12.64060074 4.03785128 7.32030552 4.02115268 2 4 C1.34 2.68 0.68 1.36 0 0 Z " fill="#536BE6" transform="translate(2,227)"/>
<path d="M0 0 C1.91541138 -0.10841951 3.83259773 -0.18578079 5.75 -0.25 C6.81734375 -0.29640625 7.8846875 -0.3428125 8.984375 -0.390625 C12 0 12 0 14.35546875 1.80078125 C16 4 16 4 16.5625 7.4375 C15.72102259 12.76685694 12.76632972 14.61557941 8.6875 17.8125 C8.130625 18.204375 7.57375 18.59625 7 19 C6.67 18.34 6.34 17.68 6 17 C6.66 17 7.32 17 8 17 C8.103125 16.443125 8.20625 15.88625 8.3125 15.3125 C9 13 9 13 10.625 10.6875 C12.45311643 7.11436334 11.82887239 4.84295379 11 1 C10.01 1.33 9.02 1.66 8 2 C6.60560336 2.06665376 5.20830125 2.08538199 3.8125 2.0625 C1.9253125 2.0315625 1.9253125 2.0315625 0 2 C0 1.34 0 0.68 0 0 Z " fill="#51B4E6" transform="translate(320,336)"/>
<path d="M0 0 C0.87914062 0.02449219 1.75828125 0.04898438 2.6640625 0.07421875 C5.1914553 0.25945112 7.5808658 0.75367316 10.0625 1.25 C10.81917969 1.08371094 11.57585937 0.91742188 12.35546875 0.74609375 C16.14255428 0.05206797 19.55007244 0.6248685 23.34375 1.09375 C26.12400746 1.25353491 28.35138541 0.80695223 31.0625 0.25 C33.375 1.1875 33.375 1.1875 35.0625 2.25 C29.46022268 3.04992991 24.06048115 3.386767 18.40625 3.34765625 C17.61851196 3.3462413 16.83077393 3.34482635 16.01916504 3.34336853 C13.53356936 3.33782612 11.04806789 3.32528485 8.5625 3.3125 C6.86458465 3.30747754 5.16666786 3.30291595 3.46875 3.29882812 C-0.66670229 3.28787564 -4.80208524 3.27065166 -8.9375 3.25 C-5.74514545 0.69679048 -4.13142325 -0.12731659 0 0 Z " fill="#536BE6" transform="translate(342.9375,227.75)"/>
<path d="M0 0 C0.87914062 0.02449219 1.75828125 0.04898438 2.6640625 0.07421875 C5.1914553 0.25945112 7.5808658 0.75367316 10.0625 1.25 C10.81917969 1.08371094 11.57585937 0.91742188 12.35546875 0.74609375 C16.14255428 0.05206797 19.55007244 0.6248685 23.34375 1.09375 C26.12400746 1.25353491 28.35138541 0.80695223 31.0625 0.25 C33.375 1.1875 33.375 1.1875 35.0625 2.25 C29.46022268 3.04992991 24.06048115 3.386767 18.40625 3.34765625 C17.61851196 3.3462413 16.83077393 3.34482635 16.01916504 3.34336853 C13.53356936 3.33782612 11.04806789 3.32528485 8.5625 3.3125 C6.86458465 3.30747754 5.16666786 3.30291595 3.46875 3.29882812 C-0.66670229 3.28787564 -4.80208524 3.27065166 -8.9375 3.25 C-5.74514545 0.69679048 -4.13142325 -0.12731659 0 0 Z " fill="#536BE6" transform="translate(246.9375,227.75)"/>
<path d="M0 0 C4.23176701 -0.02499226 8.46349323 -0.04299623 12.6953125 -0.05493164 C14.13054148 -0.05991507 15.56576551 -0.06670425 17.00097656 -0.07543945 C25.05100017 -0.12315577 33.00283763 -0.06861751 41 1 C36.69631174 3.86912551 32.98940696 3.3730138 28 2.4375 C24.94713608 1.84401237 24.94713608 1.84401237 21.6875 2.5 C18.54277631 2.92640321 16.45150704 2.90816014 13.375 2.5 C9.97175366 2.04931543 7.34243003 2.04501999 4 3 C0.11111111 4 0.11111111 4 -2 4 C-1.34 2.68 -0.68 1.36 0 0 Z " fill="#5744E1" transform="translate(4,169)"/>
<path d="M0 0 C0.33 0 0.66 0 1 0 C1.66 3.63 2.32 7.26 3 11 C16.86 11.33 30.72 11.66 45 12 C45 12.33 45 12.66 45 13 C39.09184657 13.09890033 33.18417528 13.17148371 27.27539062 13.21972656 C25.26553962 13.23983805 23.25574709 13.26713115 21.24609375 13.30175781 C18.35662404 13.35029634 15.46792809 13.37297322 12.578125 13.390625 C11.23104462 13.42159271 11.23104462 13.42159271 9.85675049 13.45318604 C3.653315 13.45541572 3.653315 13.45541572 0.42089844 11.20214844 C-1.6051652 8.06209792 -1.33832549 5.65391525 -1 2 C-0.67 1.34 -0.34 0.68 0 0 Z " fill="#502AD4" transform="translate(10,135)"/>
<path d="M0 0 C0 0.99 0 1.98 0 3 C-0.99 3 -1.98 3 -3 3 C-3 2.34 -3 1.68 -3 1 C-5.86705451 2.07347855 -8.49213993 3.23065087 -11 5 C-12.54086322 8.51400668 -12.54086322 8.51400668 -13 12 C-13.33 12.66 -13.66 13.32 -14 14 C-16.34168764 10.48746854 -16.49623677 9.13530644 -16 5 C-12.96493076 -1.98065925 -6.53716057 -0.46253495 0 0 Z " fill="#58B7E8" transform="translate(80,336)"/>
<path d="M0 0 C0.33 0 0.66 0 1 0 C1.103125 0.94875 1.20625 1.8975 1.3125 2.875 C1.68539295 6.29107501 1.68539295 6.29107501 5 8 C7.74518321 8.24187651 7.74518321 8.24187651 10.6875 8.125 C11.68136719 8.10695313 12.67523438 8.08890625 13.69921875 8.0703125 C14.45847656 8.04710937 15.21773437 8.02390625 16 8 C16 9.32 16 10.64 16 12 C6.51578947 12.55789474 6.51578947 12.55789474 2 9 C0 7 0 7 -0.125 3.375 C-0.08375 2.26125 -0.0425 1.1475 0 0 Z " fill="#883AD0" transform="translate(64,53)"/>
<path d="M0 0 C0.87914062 0.02449219 1.75828125 0.04898438 2.6640625 0.07421875 C5.1914553 0.25945112 7.5808658 0.75367316 10.0625 1.25 C10.908125 1.064375 11.75375 0.87875 12.625 0.6875 C15.52112317 0.16768302 16.61949399 0.71181103 19.0625 2.25 C12.85079926 3.17159579 6.83640894 3.37177385 0.5625 3.3125 C-0.3553125 3.30798828 -1.273125 3.30347656 -2.21875 3.29882812 C-4.45840391 3.28716326 -6.69791545 3.27079614 -8.9375 3.25 C-5.88558835 0.57164797 -4.04698599 -0.12471451 0 0 Z " fill="#536BE8" transform="translate(166.9375,227.75)"/>
<path d="M0 0 C0.87914063 0.02449219 1.75828125 0.04898438 2.6640625 0.07421875 C5.1914553 0.25945112 7.5808658 0.75367316 10.0625 1.25 C10.908125 1.064375 11.75375 0.87875 12.625 0.6875 C15.52112317 0.16768302 16.61949399 0.71181103 19.0625 2.25 C12.85079926 3.17159579 6.83640894 3.37177385 0.5625 3.3125 C-0.3553125 3.30798828 -1.273125 3.30347656 -2.21875 3.29882812 C-4.45840391 3.28716326 -6.69791545 3.27079614 -8.9375 3.25 C-5.88558835 0.57164797 -4.04698599 -0.12471451 0 0 Z " fill="#536BE8" transform="translate(102.9375,227.75)"/>
<path d="M0 0 C0.33 0 0.66 0 1 0 C1.48586118 6.31619537 1.48586118 6.31619537 -0.6875 9.375 C-5.62798089 12.84668928 -11.0727597 11.98107285 -16.8125 11.5625 C-17.99489258 11.48418945 -17.99489258 11.48418945 -19.20117188 11.40429688 C-21.13451529 11.27540731 -23.06732164 11.13850506 -25 11 C-25 10.67 -25 10.34 -25 10 C-23.77023437 9.97421875 -22.54046875 9.9484375 -21.2734375 9.921875 C-19.64059068 9.86556994 -18.00777955 9.80822315 -16.375 9.75 C-15.16263672 9.72873047 -15.16263672 9.72873047 -13.92578125 9.70703125 C-8.54585819 9.48833519 -5.22776438 8.63908832 -1 5 C-0.03780298 2.37233611 -0.03780298 2.37233611 0 0 Z " fill="#512AD4" transform="translate(390,137)"/>
<path d="M0 0 C2.96082171 3.47652039 4.5449593 7.35678468 6.1875 11.5625 C6.46013672 12.23474609 6.73277344 12.90699219 7.01367188 13.59960938 C8.18137285 16.54666423 9 18.80156144 9 22 C8.34 22 7.68 22 7 22 C6.32739649 20.23141309 5.66211605 18.46003984 5 16.6875 C4.62875 15.70136719 4.2575 14.71523437 3.875 13.69921875 C3 11 3 11 3 8 C2.34 7.67 1.68 7.34 1 7 C1.33 6.34 1.66 5.68 2 5 C1.01 5 0.02 5 -1 5 C-0.67 3.35 -0.34 1.7 0 0 Z " fill="#6332E1" transform="translate(381,115)"/>
<path d="M0 0 C1.5 1 1.5 1 3 3 C3.27345479 5.71846235 3.13491285 8.25677199 3 11 C2.01 11.495 2.01 11.495 1 12 C1 11.34 1 10.68 1 10 C0.01 9.67 -0.98 9.34 -2 9 C-2.125 5.625 -2.125 5.625 -2 2 C-1.34 1.34 -0.68 0.68 0 0 Z " fill="#A049F8" transform="translate(67,50)"/>
<path d="M0 0 C0.78375 0.04125 1.5675 0.0825 2.375 0.125 C1.92125 0.5375 1.4675 0.95 1 1.375 C-0.6984914 3.00936819 -0.6984914 3.00936819 -1.4375 5 C-3.21218026 8.17574362 -5.76966595 9.89039075 -8.625 12.125 C-8.625 6.96548737 -5.83533693 0.27787319 0 0 Z " fill="#8540E9" transform="translate(39.625,83.875)"/>
<path d="M0 0 C0.66 0.33 1.32 0.66 2 1 C2.42653727 5.35068018 2.57772872 7.29388712 -0.25 10.75 C-2.46466975 12.56200252 -4.66001764 14.35334575 -7 16 C-7.33 15.34 -7.66 14.68 -8 14 C-7.34 14 -6.68 14 -6 14 C-5.7834375 13.071875 -5.7834375 13.071875 -5.5625 12.125 C-5 10 -5 10 -4 8 C-1.9375 6.875 -1.9375 6.875 0 6 C0 4.02 0 2.04 0 0 Z " fill="#4EC4EB" transform="translate(334,339)"/>
<path d="M0 0 C2 1.0625 2 1.0625 4 3 C4.5625 6.4375 4.5625 6.4375 4 10 C1.5 12.4375 1.5 12.4375 -1 14 C-1.75 11.75 -1.75 11.75 -2 9 C-0.0625 6.6875 -0.0625 6.6875 2 5 C1.34 4.34 0.68 3.68 0 3 C0 2.01 0 1.02 0 0 Z " fill="#A144EF" transform="translate(332,50)"/>
<path d="M0 0 C0.66 0 1.32 0 2 0 C1.25 4.75 1.25 4.75 -1 7 C-4.0390625 6.9765625 -4.0390625 6.9765625 -7.625 6.625 C-8.81351562 6.51414063 -10.00203125 6.40328125 -11.2265625 6.2890625 C-12.59941406 6.14597656 -12.59941406 6.14597656 -14 6 C-11.33788628 4.62420173 -8.93703384 3.62936439 -6 3 C-6 3.66 -6 4.32 -6 5 C-4.35 5 -2.7 5 -1 5 C-0.67 3.35 -0.34 1.7 0 0 Z " fill="#536AE9" transform="translate(396,225)"/>
<path d="M0 0 C0.33 0 0.66 0 1 0 C1.42423476 4.66658239 -0.05243909 7.80525342 -2 12 C-2.350625 12.94875 -2.70125 13.8975 -3.0625 14.875 C-4 17 -4 17 -6 18 C-4.83805848 11.53287812 -2.8751252 5.90377651 0 0 Z " fill="#6533E4" transform="translate(17,117)"/>
<path d="M0 0 C0.66 0.33 1.32 0.66 2 1 C2.36263859 6.8022175 1.25684543 10.63999211 -1 16 C-1.66 15.34 -2.32 14.68 -3 14 C-3 13.01 -3 12.02 -3 11 C-2.34 11 -1.68 11 -1 11 C-0.67 7.37 -0.34 3.74 0 0 Z " fill="#4979DC" transform="translate(389,255)"/>
<path d="M0 0 C0.66 0 1.32 0 2 0 C0.58707905 4.8274799 -1.42974154 8.7162359 -4 13 C-4.33 13 -4.66 13 -5 13 C-5 10.69 -5 8.38 -5 6 C-4.01 6 -3.02 6 -2 6 C-1.34 4.02 -0.68 2.04 0 0 Z " fill="#4996E4" transform="translate(376,291)"/>
<path d="M0 0 C0.33 0 0.66 0 1 0 C1.66 3.63 2.32 7.26 3 11 C3.99 11 4.98 11 6 11 C6 11.66 6 12.32 6 13 C3.76711635 12.61502006 2.16343698 12.10506663 0.25 10.875 C-1.68724664 7.96913004 -1.24700969 5.39638319 -1 2 C-0.67 1.34 -0.34 0.68 0 0 Z " fill="#5B32E6" transform="translate(10,135)"/>
<path d="M0 0 C-1.85745702 1.85745702 -4.51705759 1.46688101 -7.0078125 1.74609375 C-9.04925215 1.96423487 -9.04925215 1.96423487 -11.1875 2.5625 C-13.4873491 3.11763599 -15.64388218 3.06544772 -18 3 C-18 2.34 -18 1.68 -18 1 C-15.56348622 0.63737003 -13.12623023 0.28461036 -10.6875 -0.0625 C-9.99720703 -0.16626953 -9.30691406 -0.27003906 -8.59570312 -0.37695312 C-5.30415164 -0.83808836 -3.19783876 -1.06594625 0 0 Z " fill="#DE50F0" transform="translate(183,1)"/>
<path d="M0 0 C0.91007812 0.00902344 1.82015625 0.01804688 2.7578125 0.02734375 C3.45648438 0.03894531 4.15515625 0.05054688 4.875 0.0625 C5.205 0.7225 5.535 1.3825 5.875 2.0625 C-0.065 2.5575 -0.065 2.5575 -6.125 3.0625 C-6.455 2.4025 -6.785 1.7425 -7.125 1.0625 C-4.60024538 -0.19987731 -2.81299534 -0.03606404 0 0 Z " fill="#566EEC" transform="translate(294.125,227.9375)"/>
<path d="M0 0 C0.91007813 0.00902344 1.82015625 0.01804688 2.7578125 0.02734375 C3.45648438 0.03894531 4.15515625 0.05054688 4.875 0.0625 C5.205 0.7225 5.535 1.3825 5.875 2.0625 C-0.065 2.5575 -0.065 2.5575 -6.125 3.0625 C-6.455 2.4025 -6.785 1.7425 -7.125 1.0625 C-4.60024538 -0.19987731 -2.81299534 -0.03606404 0 0 Z " fill="#566EEC" transform="translate(198.125,227.9375)"/>
<path d="M0 0 C0.91007813 0.00902344 1.82015625 0.01804688 2.7578125 0.02734375 C3.45648438 0.03894531 4.15515625 0.05054688 4.875 0.0625 C5.205 0.7225 5.535 1.3825 5.875 2.0625 C-0.065 2.5575 -0.065 2.5575 -6.125 3.0625 C-6.455 2.4025 -6.785 1.7425 -7.125 1.0625 C-4.60024538 -0.19987731 -2.81299534 -0.03606404 0 0 Z " fill="#566EEC" transform="translate(134.125,227.9375)"/>
<path d="M0 0 C0.91007812 0.00902344 1.82015625 0.01804688 2.7578125 0.02734375 C3.45648438 0.03894531 4.15515625 0.05054688 4.875 0.0625 C5.205 0.7225 5.535 1.3825 5.875 2.0625 C-0.065 2.5575 -0.065 2.5575 -6.125 3.0625 C-6.455 2.4025 -6.785 1.7425 -7.125 1.0625 C-4.60024538 -0.19987731 -2.81299534 -0.03606404 0 0 Z " fill="#566EEC" transform="translate(70.125,227.9375)"/>
<path d="M0 0 C1.43739513 -0.02712066 2.87493863 -0.04645067 4.3125 -0.0625 C5.51326172 -0.07990234 5.51326172 -0.07990234 6.73828125 -0.09765625 C9 0 9 0 12 1 C12.33 2.65 12.66 4.3 13 6 C12.34 6 11.68 6 11 6 C10.67 4.68 10.34 3.36 10 2 C6.7 1.67 3.4 1.34 0 1 C0 0.67 0 0.34 0 0 Z " fill="#5949E3" transform="translate(386,170)"/>
<path d="M0 0 C1.24546405 2.49092811 0.7767578 3.41080733 0 6 C0.66 6 1.32 6 2 6 C3 9 3 9 2.0625 11.1875 C1.5365625 12.0846875 1.5365625 12.0846875 1 13 C-0.99544337 8.88439805 -1.26247139 5.54950416 -1 1 C-0.67 0.67 -0.34 0.34 0 0 Z " fill="#4476DB" transform="translate(10,255)"/>
<path d="M0 0 C0.33 0 0.66 0 1 0 C1.36272727 6.40818182 1.36272727 6.40818182 -0.1875 8.9375 C-2.56041618 10.32851983 -4.29686424 10.21917317 -7 10 C-6.21625 9.46375 -5.4325 8.9275 -4.625 8.375 C-1.66573701 5.69757158 -0.95391744 3.81566975 0 0 Z " fill="#5B32E5" transform="translate(390,137)"/>
<path d="M0 0 C0.66 1.32 1.32 2.64 2 4 C2.66 4 3.32 4 4 4 C4 4.99 4 5.98 4 7 C4.99 7.33 5.98 7.66 7 8 C6.01 8.33 5.02 8.66 4 9 C0.06153846 5.67692308 0.06153846 5.67692308 -0.25 2.25 C-0.1675 1.5075 -0.085 0.765 0 0 Z " fill="#54A7EF" transform="translate(33,307)"/>
<path d="M0 0 C0.99 0.33 1.98 0.66 3 1 C0.525 4.465 0.525 4.465 -2 8 C-2.33 7.01 -2.66 6.02 -3 5 C-1.5625 2.3125 -1.5625 2.3125 0 0 Z " fill="#5380EE" transform="translate(13,252)"/>
<path d="M0 0 C0.66 0.33 1.32 0.66 2 1 C2.125 7.75 2.125 7.75 1 10 C0.01 10 -0.98 10 -2 10 C-1.67 9.46375 -1.34 8.9275 -1 8.375 C0.22699204 5.4608939 0.14233286 3.13132292 0 0 Z " fill="#4DB8DA" transform="translate(334,339)"/>
<path d="M0 0 C3.96 0 7.92 0 12 0 C12 0.99 12 1.98 12 3 C11.01 3 10.02 3 9 3 C9 2.34 9 1.68 9 1 C6.03 1 3.06 1 0 1 C0 0.67 0 0.34 0 0 Z " fill="#4AA6DE" transform="translate(68,336)"/>
<path d="M0 0 C0.75 1.6875 0.75 1.6875 1 4 C-0.9375 6.75 -0.9375 6.75 -3 9 C-3 4.72290301 -2.29379749 3.44069624 0 0 Z " fill="#7C3EDC" transform="translate(34,87)"/>
</svg>
